<svg width="15" height="15" viewBox="0 0 15 15" fill="none" xmlns="http://www.w3.org/2000/svg">
<path d="M12.4694 2.75829C12.1638 2.45255 11.8009 2.21001 11.4016 2.04453C11.0022 1.87906 10.5742 1.79388 10.1419 1.79388C9.70957 1.79388 9.28152 1.87906 8.88216 2.04453C8.4828 2.21001 8.11995 2.45255 7.81435 2.75829L7.18011 3.39253L6.54588 2.75829C5.92858 2.141 5.09135 1.7942 4.21836 1.7942C3.34538 1.7942 2.50814 2.141 1.89085 2.75829C1.27355 3.37559 0.926758 4.21282 0.926758 5.08581C0.926758 5.9588 1.27355 6.79603 1.89085 7.41333L2.52508 8.04756L7.18011 12.7026L11.8351 8.04756L12.4694 7.41333C12.7751 7.10772 13.0177 6.74488 13.1831 6.34551C13.3486 5.94615 13.4338 5.5181 13.4338 5.08581C13.4338 4.65352 13.3486 4.22547 13.1831 3.82611C13.0177 3.42674 12.7751 3.0639 12.4694 2.75829V2.75829Z" stroke="#4FB372" stroke-linecap="round" stroke-linejoin="round"/>
</svg>
