<svg width="15" height="15" viewBox="0 0 15 15" fill="none" xmlns="http://www.w3.org/2000/svg">
<g clip-path="url(#clip0_170:1348)">
<path d="M2.59004 1.33667L0.795044 3.73V12.1067C0.795044 12.424 0.921121 12.7284 1.14554 12.9528C1.36996 13.1773 1.67433 13.3033 1.99171 13.3033H10.3684C10.6858 13.3033 10.9901 13.1773 11.2145 12.9528C11.439 12.7284 11.565 12.424 11.565 12.1067V3.73L9.77004 1.33667H2.59004Z" stroke="#4FB372" stroke-linecap="round" stroke-linejoin="round"/>
<path d="M0.795044 3.73004H11.565" stroke="#4FB372" stroke-linecap="round" stroke-linejoin="round"/>
<path d="M8.57329 6.12335C8.57329 6.7581 8.32113 7.36686 7.8723 7.81569C7.42346 8.26453 6.81471 8.51669 6.17995 8.51669C5.5452 8.51669 4.93645 8.26453 4.48761 7.81569C4.03878 7.36686 3.78662 6.7581 3.78662 6.12335" stroke="#4FB372" stroke-linecap="round" stroke-linejoin="round"/>
</g>
<defs>
<clipPath id="clip0_170:1348">
<rect width="14.36" height="14.36" fill="white" transform="translate(0 0.140015)"/>
</clipPath>
</defs>
</svg>
