<svg width="15" height="15" viewBox="0 0 15 15" fill="none" xmlns="http://www.w3.org/2000/svg">
<g clip-path="url(#clip0_170:1329)">
<path d="M9.21513 12.705C9.10994 12.8864 8.95895 13.0369 8.77729 13.1415C8.59562 13.2462 8.38966 13.3012 8.18001 13.3012C7.97037 13.3012 7.76441 13.2462 7.58274 13.1415C7.40108 13.0369 7.25009 12.8864 7.1449 12.705" stroke="#4FB372" stroke-linecap="round" stroke-linejoin="round"/>
<path d="M12.147 7.91836C11.8808 6.94392 11.7539 5.93671 11.77 4.9267" stroke="#4FB372" stroke-linecap="round" stroke-linejoin="round"/>
<path d="M4.74561 3.88559C4.64166 4.22282 4.58921 4.5738 4.59004 4.92669C4.59004 9.11502 2.79504 10.3117 2.79504 10.3117H11.1717" stroke="#4FB372" stroke-linecap="round" stroke-linejoin="round"/>
<path d="M11.77 4.92669C11.7709 4.27634 11.5952 3.63794 11.2616 3.07969C10.9279 2.52143 10.4489 2.06429 9.8757 1.7571C9.30247 1.4499 8.65657 1.30419 8.00697 1.33553C7.35738 1.36687 6.72849 1.57408 6.1875 1.93502" stroke="#4FB372" stroke-linecap="round" stroke-linejoin="round"/>
<path d="M1.59839 0.738342L14.7617 13.9017" stroke="#4FB372" stroke-linecap="round" stroke-linejoin="round"/>
</g>
<defs>
<clipPath id="clip0_170:1329">
<rect width="14.36" height="14.36" fill="white" transform="translate(0 0.140015)"/>
</clipPath>
</defs>
</svg>
