<svg width="15" height="16" viewBox="0 0 15 16" fill="none" xmlns="http://www.w3.org/2000/svg">
<path d="M11.7203 9.795C11.6406 9.97547 11.6169 10.1757 11.6521 10.3698C11.6873 10.5638 11.7798 10.743 11.9177 10.884L11.9536 10.9199C12.0649 11.031 12.1531 11.163 12.2134 11.3083C12.2736 11.4535 12.3046 11.6092 12.3046 11.7665C12.3046 11.9238 12.2736 12.0795 12.2134 12.2248C12.1531 12.37 12.0649 12.502 11.9536 12.6132C11.8425 12.7244 11.7105 12.8127 11.5652 12.8729C11.42 12.9331 11.2642 12.9641 11.107 12.9641C10.9497 12.9641 10.794 12.9331 10.6487 12.8729C10.5035 12.8127 10.3715 12.7244 10.2603 12.6132L10.2244 12.5773C10.0834 12.4393 9.90432 12.3468 9.71022 12.3116C9.51613 12.2764 9.31594 12.3002 9.13547 12.3798C8.9585 12.4556 8.80757 12.5816 8.70126 12.7421C8.59495 12.9026 8.5379 13.0907 8.53714 13.2833V13.385C8.53714 13.7024 8.41106 14.0068 8.18664 14.2312C7.96222 14.4556 7.65785 14.5817 7.34047 14.5817C7.02309 14.5817 6.71872 14.4556 6.4943 14.2312C6.26988 14.0068 6.1438 13.7024 6.1438 13.385V13.3312C6.13917 13.1331 6.07507 12.941 5.95982 12.7799C5.84458 12.6188 5.68353 12.496 5.4976 12.4277C5.31714 12.348 5.11695 12.3243 4.92285 12.3595C4.72876 12.3946 4.54965 12.4872 4.40864 12.6251L4.37274 12.661C4.2616 12.7723 4.12962 12.8605 3.98435 12.9208C3.83907 12.981 3.68336 13.012 3.5261 13.012C3.36884 13.012 3.21312 12.981 3.06784 12.9208C2.92257 12.8605 2.79059 12.7723 2.67945 12.661C2.56819 12.5499 2.47993 12.4179 2.41971 12.2726C2.35948 12.1274 2.32849 11.9716 2.32849 11.8144C2.32849 11.6571 2.35948 11.5014 2.41971 11.3561C2.47993 11.2109 2.56819 11.0789 2.67945 10.9677L2.71535 10.9318C2.85329 10.7908 2.94582 10.6117 2.98102 10.4176C3.01621 10.2235 2.99245 10.0233 2.9128 9.84287C2.83696 9.6659 2.71102 9.51497 2.55049 9.40866C2.38997 9.30235 2.20186 9.2453 2.00932 9.24453H1.9076C1.59023 9.24453 1.28585 9.11846 1.06143 8.89404C0.837015 8.66962 0.710938 8.36524 0.710938 8.04787C0.710938 7.73049 0.837015 7.42612 1.06143 7.2017C1.28585 6.97728 1.59023 6.8512 1.9076 6.8512H1.96145C2.1595 6.84657 2.35157 6.78246 2.5127 6.66722C2.67383 6.55198 2.79656 6.39092 2.86494 6.205C2.94458 6.02453 2.96834 5.82435 2.93315 5.63025C2.89796 5.43615 2.80543 5.25705 2.66749 5.11603L2.63159 5.08013C2.52033 4.969 2.43206 4.83702 2.37184 4.69174C2.31162 4.54647 2.28062 4.39075 2.28062 4.23349C2.28062 4.07623 2.31162 3.92051 2.37184 3.77524C2.43206 3.62997 2.52033 3.49799 2.63159 3.38685C2.74273 3.27559 2.8747 3.18732 3.01998 3.1271C3.16525 3.06688 3.32097 3.03589 3.47823 3.03589C3.63549 3.03589 3.79121 3.06688 3.93648 3.1271C4.08175 3.18732 4.21373 3.27559 4.32487 3.38685L4.36077 3.42275C4.50179 3.56069 4.68089 3.65322 4.87498 3.68841C5.06908 3.72361 5.26927 3.69985 5.44974 3.6202H5.4976C5.67457 3.54435 5.8255 3.41842 5.93181 3.25789C6.03812 3.09736 6.09517 2.90925 6.09594 2.71672V2.615C6.09594 2.29763 6.22201 1.99325 6.44643 1.76883C6.67085 1.54441 6.97523 1.41833 7.2926 1.41833C7.60998 1.41833 7.91436 1.54441 8.13877 1.76883C8.36319 1.99325 8.48927 2.29763 8.48927 2.615V2.66885C8.49004 2.86139 8.54709 3.0495 8.6534 3.21002C8.75971 3.37055 8.91064 3.49649 9.0876 3.57233C9.26807 3.65198 9.46826 3.67574 9.66236 3.64055C9.85645 3.60535 10.0356 3.51282 10.1766 3.37488L10.2125 3.33898C10.3236 3.22772 10.4556 3.13946 10.6009 3.07924C10.7461 3.01902 10.9019 2.98802 11.0591 2.98802C11.2164 2.98802 11.3721 3.01902 11.5174 3.07924C11.6626 3.13946 11.7946 3.22772 11.9058 3.33898C12.017 3.45012 12.1053 3.5821 12.1655 3.72737C12.2257 3.87265 12.2567 4.02837 12.2567 4.18563C12.2567 4.34289 12.2257 4.49861 12.1655 4.64388C12.1053 4.78915 12.017 4.92113 11.9058 5.03227L11.8699 5.06817C11.7319 5.20918 11.6394 5.38829 11.6042 5.58238C11.569 5.77648 11.5928 5.97667 11.6724 6.15713V6.205C11.7482 6.38197 11.8742 6.5329 12.0347 6.63921C12.1952 6.74552 12.3834 6.80257 12.5759 6.80333H12.6776C12.995 6.80333 13.2994 6.92941 13.5238 7.15383C13.7482 7.37825 13.8743 7.68263 13.8743 8C13.8743 8.31738 13.7482 8.62175 13.5238 8.84617C13.2994 9.07059 12.995 9.19667 12.6776 9.19667H12.6238C12.4312 9.19744 12.2431 9.25449 12.0826 9.3608C11.9221 9.4671 11.7961 9.61803 11.7203 9.795V9.795Z" stroke="#4FB372" stroke-linecap="round" stroke-linejoin="round"/>
</svg>
