<svg width="19" height="17" viewBox="0 0 19 17" fill="none" xmlns="http://www.w3.org/2000/svg">
<path d="M18.5731 5.57062L17.6106 1.56478C17.4089 0.739781 16.6939 0.171448 15.8597 0.171448H3.12722C2.30222 0.171448 1.57805 0.748948 1.38555 1.56478L0.423053 5.57062C0.203053 6.50562 0.40472 7.45895 0.991386 8.21062C1.06472 8.31145 1.16555 8.38478 1.24805 8.47645V14.8381C1.24805 15.8464 2.07305 16.6714 3.08139 16.6714H15.9147C16.9231 16.6714 17.7481 15.8464 17.7481 14.8381V8.47645C17.8306 8.39395 17.9314 8.31145 18.0047 8.21978C18.5914 7.46811 18.8022 6.50562 18.5731 5.57062ZM15.8322 1.99561L16.7947 6.00145C16.8864 6.38645 16.8039 6.77145 16.5656 7.07395C16.4372 7.23895 16.1622 7.50478 15.7039 7.50478C15.1447 7.50478 14.6589 7.05561 14.5947 6.45978L14.0631 2.00478L15.8322 1.99561ZM10.4147 2.00478H12.2114L12.7064 6.14812C12.7522 6.50562 12.6422 6.86312 12.4039 7.12895C12.2022 7.36728 11.9089 7.50478 11.5331 7.50478C10.9189 7.50478 10.4147 6.96395 10.4147 6.30395V2.00478ZM6.28055 6.14812L6.78472 2.00478H8.58139V6.30395C8.58139 6.96395 8.07722 7.50478 7.39889 7.50478C7.08722 7.50478 6.80305 7.36728 6.58305 7.12895C6.35389 6.86312 6.24389 6.50562 6.28055 6.14812ZM2.20139 6.00145L3.12722 2.00478H4.93305L4.40139 6.45978C4.32805 7.05561 3.85139 7.50478 3.29222 7.50478C2.84305 7.50478 2.55889 7.23895 2.43972 7.07395C2.19222 6.78061 2.10972 6.38645 2.20139 6.00145ZM3.08139 14.8381V9.31062C3.15472 9.31978 3.21889 9.33812 3.29222 9.33812C4.08972 9.33812 4.81389 9.00812 5.34555 8.46728C5.89555 9.01728 6.62889 9.33812 7.46305 9.33812C8.26055 9.33812 8.97555 9.00811 9.50722 8.48561C10.0481 9.00811 10.7814 9.33812 11.6064 9.33812C12.3764 9.33812 13.1097 9.01728 13.6597 8.46728C14.1914 9.00812 14.9156 9.33812 15.7131 9.33812C15.7864 9.33812 15.8506 9.31978 15.9239 9.31062V14.8381H3.08139Z" fill="#B9B9B7"/>
</svg>
